<?xml version="1.0" encoding="UTF-8" standalone="no"?>
<svg
   xmlns:dc="http://purl.org/dc/elements/1.1/"
   xmlns:cc="http://creativecommons.org/ns#"
   xmlns:rdf="http://www.w3.org/1999/02/22-rdf-syntax-ns#"
   xmlns:svg="http://www.w3.org/2000/svg"
   xmlns="http://www.w3.org/2000/svg"
   xmlns:sodipodi="http://sodipodi.sourceforge.net/DTD/sodipodi-0.dtd"
   xmlns:inkscape="http://www.inkscape.org/namespaces/inkscape"
   width="210mm"
   height="145mm"
   viewBox="0 0 210 145"
   version="1.1"
   id="svg8"
   inkscape:version="1.0.2-2 (e86c870879, 2021-01-15)"
   sodipodi:docname="logo_white.svg">
  <defs
     id="defs2" />
  <sodipodi:namedview
     id="base"
     pagecolor="#ffffff"
     bordercolor="#666666"
     borderopacity="1.0"
     inkscape:pageopacity="0.0"
     inkscape:pageshadow="2"
     inkscape:zoom="1.4"
     inkscape:cx="409.49515"
     inkscape:cy="280.20374"
     inkscape:document-units="mm"
     inkscape:current-layer="layer1"
     inkscape:document-rotation="0"
     showgrid="false"
     inkscape:window-width="1920"
     inkscape:window-height="1009"
     inkscape:window-x="-8"
     inkscape:window-y="-8"
     inkscape:window-maximized="1" />
  <metadata
     id="metadata5">
    <rdf:RDF>
      <cc:Work
         rdf:about="">
        <dc:format>image/svg+xml</dc:format>
        <dc:type
           rdf:resource="http://purl.org/dc/dcmitype/StillImage" />
        <dc:title></dc:title>
      </cc:Work>
    </rdf:RDF>
  </metadata>
  <g
     inkscape:label="Warstwa 1"
     inkscape:groupmode="layer"
     id="layer1">
    <path
       style="fill:#000000;stroke-width:0.264583"
       id="path881"
       d="" />
    <path
       style="fill:#ffffff;stroke-width:0.264583;fill-opacity:1"
       d="M 98.224765,142.93601 C 64.30918,139.86698 29.077011,115.0815 2.3650093,75.499629 0.23913932,72.349499 0.19861932,72.460739 6.4243093,64.354399 35.031729,27.105259 62.212985,7.928009 93.413685,2.9805791 131.87279,-3.1177909 174.8387,22.413589 207.95763,71.045349 c 2.2062,3.23959 1.40916,4.71668 -10.59519,19.63509 -28.30539,35.176521 -66.33811,55.223601 -99.137675,52.255571 z m 14.960195,-8.62138 c 68.61738,-8.5913 74.99284,-104.932861 8.06982,-121.945461 -31.524056,-8.01377 -65.511744,9.35289 -75.682734,38.67154 -15.544588,44.808472 20.47846,89.175431 67.612914,83.273921 z m -12.69997,-17.4734 C 63.20187,112.87197 46.824985,68.322709 72.968331,41.988949 c 24.906504,-25.08791 67.841209,-13.0164 75.782999,21.30712 6.69045,28.91537 -18.37934,56.727001 -48.26634,53.545161 z m 31.82493,-15.32893 c 2.83464,-1.985459 1.30685,-5.407899 -2.41411,-5.407899 -2.62536,0 -2.41178,1.33745 -2.41793,-15.141402 -0.006,-17.08816 0.24529,-16.08684 -4.0951,-16.29435 -5.17962,-0.24764 -4.87729,-1.23692 -5.03842,16.48679 -0.13229,14.552082 -0.13229,14.552082 -3.83646,14.552082 -3.70416,0 -3.70416,0 -3.60285,-9.525002 0.13325,-12.52698 0.22392,-12.29589 -4.85973,-12.38567 -4.72271,-0.0834 -4.63336,-0.3079 -4.63834,11.65418 -0.005,11.594962 0.46256,10.422292 -4.117395,10.330402 -3.68376,-0.0739 -3.68376,-0.0739 -3.81605,-4.439532 -0.17934,-5.91849 -0.66564,-6.61459 -4.620952,-6.61459 -3.479917,0 -3.943758,0.69183 -4.110294,6.13062 -0.164338,5.367002 0.115035,4.981882 -3.613949,4.981882 -4.701053,0 -6.893308,3.38885 -3.460917,5.349969 1.189985,0.67991 53.689847,0.98978 54.642497,0.32252 z M 79.105166,81.131439 c 0.319323,-0.20118 2.323291,-2.32288 4.453261,-4.71489 4.587358,-5.15172 3.940119,-4.81164 7.319268,-3.84578 4.77807,1.36571 4.3221,1.58595 9.615785,-4.6445 4.00516,-4.71389 6.11465,-7.01145 6.43751,-7.01145 0.12968,0 1.37414,0.3504 2.76547,0.77868 4.92267,1.51529 4.07916,1.93687 10.86038,-5.42792 5.64081,-6.12624 5.55533,-6.05865 6.07863,-4.80621 0.8084,1.93477 2.69176,2.5879 4.06341,1.40916 1.21093,-1.04063 1.3042,-9.19135 0.12035,-10.51734 -1.26986,-1.42234 -9.37464,-1.52285 -10.764,-0.13349 -1.37446,1.37446 -1.0199,3.47627 0.67729,4.01493 0.82722,0.26255 0.66074,0.57099 -1.766,3.27188 -4.81572,5.35975 -6.4783,6.96804 -7.07291,6.84195 -0.30839,-0.0654 -1.87992,-0.51101 -3.49228,-0.99025 -3.96024,-1.17709 -3.48624,-1.43831 -8.996425,4.95804 -6.77425,7.8637 -5.56898,7.05294 -9.133373,6.14382 -4.768706,-1.21628 -4.003291,-1.57163 -9.289118,4.31247 -2.516452,2.80128 -4.962125,5.54386 -5.43483,6.09463 -2.240824,2.61087 0.661215,6.09101 3.557582,4.26627 z M 171.12873,105.8808 c 3.91605,-3.39955 13.13271,-12.897841 16.85342,-17.368411 6.02903,-7.2441 11.33434,-13.96743 11.4894,-14.56033 0.48409,-1.85098 -28.01722,-34.48541 -29.13854,-33.36408 -0.0489,0.0489 0.43239,1.30789 1.06959,2.79772 8.54021,19.96777 7.53886,45.38402 -2.47215,62.747881 -1.79335,3.11054 -1.6581,3.09499 2.19828,-0.25278 z M 40.60868,104.11739 C 30.875604,83.753819 30.449781,61.952799 39.408117,42.651829 c 0.675799,-1.45603 1.155001,-2.72105 1.064898,-2.81115 -1.047084,-1.04708 -29.549474,30.74871 -29.549474,32.96387 0,0.71879 3.2768,5.14619 9.901283,13.37797 5.558129,6.9067 20.906999,22.593461 21.513434,21.987021 0.07711,-0.0771 -0.701201,-1.90058 -1.729578,-4.05215 z"
       id="path969" />
  </g>
</svg>
