<?xml version="1.0" encoding="UTF-8" standalone="no"?>
<svg
   xmlns:dc="http://purl.org/dc/elements/1.1/"
   xmlns:cc="http://creativecommons.org/ns#"
   xmlns:rdf="http://www.w3.org/1999/02/22-rdf-syntax-ns#"
   xmlns:svg="http://www.w3.org/2000/svg"
   xmlns="http://www.w3.org/2000/svg"
   xmlns:sodipodi="http://sodipodi.sourceforge.net/DTD/sodipodi-0.dtd"
   xmlns:inkscape="http://www.inkscape.org/namespaces/inkscape"
   width="300mm"
   height="200mm"
   viewBox="0 0 300 200"
   version="1.1"
   id="svg8"
   inkscape:version="1.0.2-2 (e86c870879, 2021-01-15)"
   sodipodi:docname="logo_napisy_white.svg"
   inkscape:export-filename="P:\PortfolioEye\napisy.png"
   inkscape:export-xdpi="67.730003"
   inkscape:export-ydpi="67.730003">
  <defs
     id="defs2" />
  <sodipodi:namedview
     id="base"
     pagecolor="#ffffff"
     bordercolor="#666666"
     borderopacity="1.0"
     inkscape:pageopacity="0.0"
     inkscape:pageshadow="2"
     inkscape:zoom="0.7"
     inkscape:cx="644.84126"
     inkscape:cy="524.60594"
     inkscape:document-units="mm"
     inkscape:current-layer="layer1"
     inkscape:document-rotation="0"
     showgrid="false"
     inkscape:window-width="1920"
     inkscape:window-height="1009"
     inkscape:window-x="-8"
     inkscape:window-y="-8"
     inkscape:window-maximized="1" />
  <metadata
     id="metadata5">
    <rdf:RDF>
      <cc:Work
         rdf:about="">
        <dc:format>image/svg+xml</dc:format>
        <dc:type
           rdf:resource="http://purl.org/dc/dcmitype/StillImage" />
        <dc:title></dc:title>
      </cc:Work>
    </rdf:RDF>
  </metadata>
  <g
     inkscape:label="Warstwa 1"
     inkscape:groupmode="layer"
     id="layer1">
    <path
       style="fill:#000000;stroke-width:0.264583"
       id="path881"
       d="" />
    <path
       style="fill:#ffffff;stroke-width:0.264583;fill-opacity:1"
       d="m 142.89163,148.83525 c -33.91559,-3.06903 -69.147762,-27.85451 -95.859762,-67.436381 -2.12587,-3.15013 -2.16639,-3.03889 4.0593,-11.14523 28.60742,-37.24914 55.788682,-56.42639 86.989382,-61.3738196 38.45911,-6.098371 81.42502,19.4330096 114.54395,68.0647686 2.2062,3.239591 1.40916,4.71668 -10.59519,19.635083 -28.30539,35.176529 -66.33811,55.223609 -99.13768,52.255579 z m 14.9602,-8.62138 c 68.61738,-8.5913 74.99284,-104.932861 8.06982,-121.945461 -31.52406,-8.01377 -65.51175,9.35289 -75.682742,38.67154 -15.54459,44.808471 20.478462,89.175431 67.612922,83.273921 z m -12.69997,-17.4734 c -37.28313,-3.96926 -53.660012,-48.518521 -27.51667,-74.852281 24.90651,-25.08791 67.84122,-13.0164 75.78301,21.30712 6.69045,28.915362 -18.37934,56.727001 -48.26634,53.545161 z m 31.82493,-15.32893 c 2.83464,-1.98546 1.30685,-5.4079 -2.41411,-5.4079 -2.62536,0 -2.41178,1.33745 -2.41793,-15.141401 -0.006,-17.08816 0.24529,-16.08684 -4.0951,-16.29435 -5.17962,-0.24764 -4.87729,-1.23692 -5.03842,16.48679 -0.13229,14.552081 -0.13229,14.552081 -3.83646,14.552081 -3.70416,0 -3.70416,0 -3.60285,-9.525009 0.13325,-12.526972 0.22392,-12.295882 -4.85973,-12.385662 -4.72271,-0.0834 -4.63336,-0.3079 -4.63834,11.654172 -0.005,11.594969 0.46256,10.422299 -4.1174,10.330409 -3.68376,-0.0739 -3.68376,-0.0739 -3.81605,-4.439539 -0.17934,-5.91849 -0.66564,-6.614586 -4.62096,-6.614586 -3.47991,0 -3.94375,0.691826 -4.11029,6.130616 -0.16434,5.367009 0.11504,4.981889 -3.61395,4.981889 -4.70105,0 -6.89331,3.38885 -3.46092,5.34997 1.18999,0.67991 53.68986,0.98978 54.64251,0.32252 z M 123.77203,87.030678 c 0.31932,-0.201179 2.32329,-2.32288 4.45326,-4.71489 4.58736,-5.151719 3.94012,-4.811639 7.31927,-3.84578 4.77807,1.365711 4.3221,1.58595 9.61579,-4.644499 4.00516,-4.713891 6.11465,-7.01145 6.43751,-7.01145 0.12968,0 1.37414,0.350399 2.76547,0.778679 4.92267,1.51529 4.07916,1.93687 10.86038,-5.42792 5.64081,-6.126239 5.55533,-6.05865 6.07863,-4.80621 0.8084,1.93477 2.69176,2.5879 4.06341,1.40916 1.21093,-1.04063 1.3042,-9.19135 0.12035,-10.51734 -1.26986,-1.42234 -9.37464,-1.52285 -10.764,-0.13349 -1.37446,1.37446 -1.0199,3.47627 0.67729,4.01493 0.82722,0.26255 0.66074,0.57099 -1.766,3.27188 -4.81572,5.35975 -6.4783,6.96804 -7.07291,6.84195 -0.30839,-0.0654 -1.87992,-0.51101 -3.49228,-0.99025 -3.96024,-1.17709 -3.48624,-1.43831 -8.99643,4.95804 -6.77425,7.8637 -5.56898,7.05294 -9.13338,6.14382 -4.7687,-1.21628 -4.00329,-1.57163 -9.28911,4.31247 -2.51646,2.80128 -4.96213,5.54386 -5.43483,6.09463 -2.24083,2.61087 0.66121,6.091006 3.55758,4.26627 z m 92.02357,24.749362 c 3.91605,-3.39955 13.13271,-12.897849 16.85342,-17.368419 6.02903,-7.244093 11.33434,-13.967423 11.4894,-14.560323 0.48409,-1.85098 -28.01722,-34.48541 -29.13854,-33.36408 -0.0489,0.0489 0.43239,1.30789 1.06959,2.79772 8.54021,19.96777 7.53886,45.384013 -2.47215,62.747882 -1.79335,3.11054 -1.6581,3.09499 2.19828,-0.25278 z M 85.275538,110.01663 c -9.73308,-20.363576 -10.1589,-42.164592 -1.20056,-61.465562 0.6758,-1.45603 1.155,-2.72105 1.0649,-2.81115 -1.04709,-1.04708 -29.54948,30.74871 -29.54948,32.96387 0,0.71879 3.2768,5.14619 9.90128,13.377963 5.55813,6.9067 20.907,22.593469 21.51344,21.987029 0.0771,-0.0771 -0.7012,-1.90058 -1.72958,-4.05215 z"
       id="path969-30"
       inkscape:export-xdpi="80.139999"
       inkscape:export-ydpi="80.139999" />
    <text
       xml:space="preserve"
       style="font-style:normal;font-variant:normal;font-weight:normal;font-stretch:normal;font-size:50.8px;line-height:1.25;font-family:Corbel;-inkscape-font-specification:Corbel;font-variant-ligatures:normal;font-variant-caps:normal;font-variant-numeric:normal;font-variant-east-asian:normal;text-align:center;letter-spacing:-1.85208px;text-anchor:middle;fill:#ffffff;fill-opacity:1;stroke:none;stroke-width:0.264583;"
       x="147.88564"
       y="191.10754"
       id="text834-2"
       inkscape:export-xdpi="80.139999"
       inkscape:export-ydpi="80.139999"><tspan
         sodipodi:role="line"
         id="tspan832-2"
         x="146.95959"
         y="191.10754"
         style="font-style:normal;font-variant:normal;font-weight:normal;font-stretch:normal;font-size:50.8px;font-family:Corbel;-inkscape-font-specification:Corbel;font-variant-ligatures:normal;font-variant-caps:normal;font-variant-numeric:normal;font-variant-east-asian:normal;text-align:center;text-anchor:middle;fill:#ffffff;fill-opacity:1;stroke-width:0.264583;"
         dx="0 0 0 0 0 -0.039999999">P<tspan
   style="font-style:normal;font-variant:normal;font-weight:normal;font-stretch:normal;font-size:38.8056px;font-family:Corbel;-inkscape-font-specification:Corbel;fill:#ffffff;fill-opacity:1;"
   id="tspan868-2">ORTFOLIO</tspan>E<tspan
   style="font-style:normal;font-variant:normal;font-weight:normal;font-stretch:normal;font-size:38.8056px;font-family:Corbel;-inkscape-font-specification:Corbel;fill:#ffffff;fill-opacity:1;"
   id="tspan880-92">YE</tspan></tspan></text>
  </g>
</svg>
